<?xml version="1.0" encoding="utf-8"?>
<!-- Generator: Adobe Illustrator 25.2.3, SVG Export Plug-In . SVG Version: 6.00 Build 0)  -->
<svg version="1.1" id="Capa_1" xmlns="http://www.w3.org/2000/svg" xmlns:xlink="http://www.w3.org/1999/xlink" x="0px" y="0px"
	 viewBox="0 0 125.5 188.7" style="enable-background:new 0 0 125.5 188.7;" xml:space="preserve">
<style type="text/css">
	.st0{fill:#C3D2D6;}
	.st1{fill:#FFDC6E;}
	.st2{fill:none;stroke:#FFFFFF;stroke-width:10;stroke-linecap:round;stroke-miterlimit:10;}
</style>
<g id="Capa_2_1_">
	<g id="Capa_1-2">
		<path class="st0" d="M34.9,158.4h55.7c2.3,0,4.2,1.9,4.2,4.2l0,0c0,2.3-1.9,4.2-4.2,4.2H34.9c-2.3,0-4.2-1.9-4.2-4.2l0,0
			C30.8,160.2,32.6,158.4,34.9,158.4z"/>
		<path class="st0" d="M34.9,169.4h55.7c2.3,0,4.2,1.9,4.2,4.2l0,0c0,2.3-1.9,4.2-4.2,4.2H34.9c-2.3,0-4.2-1.9-4.2-4.2l0,0
			C30.8,171.2,32.6,169.4,34.9,169.4z"/>
		<path class="st0" d="M34.9,180.4h55.7c2.3,0,4.2,1.9,4.2,4.2l0,0c0,2.3-1.9,4.2-4.2,4.2H34.9c-2.3,0-4.2-1.9-4.2-4.2l0,0
			C30.8,182.2,32.6,180.4,34.9,180.4z"/>
		<path class="st1" d="M125.5,62.8C125.5,28.1,97.4,0,62.8,0S0,28.1,0,62.7c0,13.7,4.5,27,12.7,37.9c11.6,15,17.9,33.4,18,52.3v1.4
			h64V153c-0.1-18.7,6.1-36.9,17.6-51.7C120.9,90.3,125.5,76.7,125.5,62.8z"/>
		<path class="st2" d="M41.9,16.5c5.8-2.5,12-3.8,18.4-3.8"/>
		<path class="st2" d="M13.7,59.4c0-13.9,6.1-27,16.8-35.8"/>
	</g>
</g>
</svg>
