<svg xmlns="http://www.w3.org/2000/svg" viewBox="0 0 497.55 1251"><defs><style>.cls-1,.cls-4{fill:#377b91;}.cls-2{fill:#e3f7fd;}.cls-3{fill:#c6effc;}.cls-4,.cls-5{font-size:100px;font-family:GillSans-Bold, Gill Sans;font-weight:700;}.cls-5,.cls-6{fill:#fff;}</style></defs><g id="Capa_2" data-name="Capa 2"><g id="ILUSTRACION_copia" data-name="ILUSTRACION copia"><polygon class="cls-1" points="126 144 126 864 99 864 99 171 126 144"/><polygon class="cls-1" points="497.55 1224 497.55 1251 99 1251 99 1107 126 1107 126 1224 497.55 1224"/><polygon class="cls-1" points="497.55 1080 497.55 1107 0 1107 0 891 27 864 27 1080 497.55 1080"/><rect class="cls-2" x="126" y="1107" width="371.55" height="117"/><polygon class="cls-2" points="497.55 0 497.55 864 126 864 126 144 270 0 497.55 0"/><rect class="cls-3" x="27" y="864" width="470.55" height="216"/><text class="cls-4" transform="translate(186.26 212.49)">01010<tspan x="0" y="120">01000</tspan><tspan x="0" y="240">01110</tspan><tspan x="0" y="480">00010</tspan><tspan x="0" y="600">00001</tspan></text><text class="cls-5" transform="translate(190.67 212.49)">01010<tspan x="0" y="120">01000</tspan><tspan x="0" y="240">01110</tspan><tspan x="0" y="480">00010</tspan><tspan x="0" y="600">00001</tspan></text><path class="cls-1" d="M84.63,994.37a14,14,0,0,1,10.27,4.17,14.34,14.34,0,0,1,0,20.28,14.74,14.74,0,0,1-20.53,0,14.34,14.34,0,0,1,0-20.28A14,14,0,0,1,84.63,994.37Z"/><path class="cls-1" d="M155.27,907.09h32.89l47.68,114.52H205.11l-8.42-21.5h-50l-8.34,21.5H107.58Zm-.88,72.74h34.55l-17.36-44.21h0Z"/><path class="cls-1" d="M250.06,908.71h44.61q19.8,0,31.44,9.65t11.64,26q0,16.3-11.64,25.91t-31.44,9.61l-16.4-.08v41.78H250.06Zm28.21,47.76h16.4q6.22,0,9.86-3.63t3.64-9.78q0-6.22-3.64-9.9t-9.86-3.68h-16.4Z"/><path class="cls-1" d="M385.51,1021.61H357.3V908.71h28.21v53.42h.06l36-53.42h31.87l-39.35,54.15,51.23,58.75H429.54l-44-53.82h0Z"/><path class="cls-6" d="M91,994.37a14,14,0,0,1,10.26,4.17,14.34,14.34,0,0,1,0,20.28,14.74,14.74,0,0,1-20.53,0,14.34,14.34,0,0,1,0-20.28A14,14,0,0,1,91,994.37Z"/><path class="cls-6" d="M161.62,907.09h32.89l47.68,114.52H211.46l-8.42-21.5H153l-8.33,21.5H113.94Zm-.87,72.74h34.54l-17.35-44.21h0Z"/><path class="cls-6" d="M256.41,908.71H301q19.8,0,31.44,9.65t11.64,26q0,16.3-11.64,25.91T301,979.91l-16.4-.08v41.78H256.41Zm28.21,47.76H301q6.23,0,9.86-3.63t3.64-9.78q0-6.22-3.64-9.9T301,929.48h-16.4Z"/><path class="cls-6" d="M391.86,1021.61h-28.2V908.71h28.2v53.42h.06l36-53.42h31.87l-39.36,54.15,51.24,58.75H435.89l-44-53.82h0Z"/></g></g></svg>