<svg xmlns="http://www.w3.org/2000/svg" viewBox="0 0 151 29.7"><defs><style>.cls-1{fill:#f02d00;}</style></defs><g id="Capa_2" data-name="Capa 2"><g id="Capa_1-2" data-name="Capa 1"><g id="dmstk-logo-sprite"><path id="logo-active" class="cls-1" d="M61.2,29H75.4V25.1H65.2v-4h8.3V17.2H65.2v-4H75.4V9.3H61.2V29ZM70.6,6.7l2.6-3.5L71,0,68.3,3.6,65.6,0,63.4,3.2,66,6.7Zm39.5,2.4h4v20h-4V9.1ZM91.4,13.2h6.3V29h4.1V13.2h6.3v-4H91.4v4Zm52.5-4.1h-4.3l-7.1,20h4.2l1.5-4.2h7.1l1.5,4.2H151l-7.1-20Zm-4.4,11.8,2.2-6,2.2,6ZM28.5,8.8A10.3,10.3,0,1,0,38.8,19.1,10.29,10.29,0,0,0,28.5,8.8Zm0,16.4a6.12,6.12,0,0,1-6.1-6.1,6.1,6.1,0,0,1,12.2,0,6.12,6.12,0,0,1-6.1,6.1ZM7.1,9.1H0V29H7.1a10,10,0,1,0,0-19.9Zm0,15.8H4V13.2H7.2a5.85,5.85,0,1,1-.1,11.7Zm42.6-6.4L44.6,9.1H40v20h4V16.5l5.6,10.3,5.6-10.3V29.1h4.1V9.1H54.7l-5,9.4Zm82.5-9.4h-4.9l-6.6,8.8V9.1h-4v20h4V24.8l2-2.7,4.7,7h4.9l-7.1-10.5,7-9.5ZM87.6,18.4A13.87,13.87,0,0,0,83.8,17a5.25,5.25,0,0,1-2.4-.9,2,2,0,0,1-.2-2.4,2.93,2.93,0,0,1,2.3-1,3.43,3.43,0,0,1,2.3.9,7.15,7.15,0,0,1,.9,1.3l.1.2,3.7-1.5v-.1a6.33,6.33,0,0,0-2.2-3.1,7.14,7.14,0,0,0-4.8-1.6A6.87,6.87,0,0,0,78,11.1a5.42,5.42,0,0,0-1.3,5.1,6,6,0,0,0,3.3,4,30.53,30.53,0,0,0,3,1.1c.6.2,1.3.4,2.2.7a1.83,1.83,0,0,1,1.3,1.8,2.68,2.68,0,0,1-2.4,1.9h-.4A3.77,3.77,0,0,1,80,23.4L76.3,25a7.23,7.23,0,0,0,2.6,3.3,8.48,8.48,0,0,0,4.8,1.4A7,7,0,0,0,90.3,26a5.85,5.85,0,0,0-2.7-7.6Z"/></g></g></g></svg>