<svg xmlns="http://www.w3.org/2000/svg" viewBox="0 0 127.67 127.67"><defs><style>.cls-1{fill:#c3d2d6;}.cls-2{fill:#bda0bb;}.cls-3{fill:#844871;}.cls-4{fill:#c5e3d4;}</style></defs><g id="Capa_2" data-name="Capa 2"><g id="Capa_1-2" data-name="Capa 1"><path class="cls-1" d="M46,95A36,36,0,0,1,32.64,45.9l-.16-.1L17,46.5,8.79,32.23,8.47,32a63.84,63.84,0,0,0,55.59,95.59l8.42-14.72L64,99.75A35.73,35.73,0,0,1,46,95Z"/><path class="cls-2" d="M119.12,31.91h-17L95,45.85a36,36,0,0,1-31,54l8.47,13.1-8.42,14.72h-.23v0a63.84,63.84,0,0,0,55.29-95.76Z"/><path class="cls-3" d="M95,45.94l.05,0,0-.06,7.18-13.94H119A63.84,63.84,0,0,0,8.54,31.8L17,46.5l15.66-.7A36,36,0,0,1,95,45.94Z"/><circle class="cls-4" cx="63.83" cy="63.83" r="17.33"/></g></g></svg>