<svg id="Capa_1" data-name="Capa 1" xmlns="http://www.w3.org/2000/svg" viewBox="0 0 255.38 138.04"><defs><style>.cls-1{fill:#1d1d1b;}</style></defs><path class="cls-1" d="M303.76,366.66a4.73,4.73,0,0,1-4.94-4.93V233.54a4.73,4.73,0,0,1,4.94-4.92H355q19.32,0,32.94,6.21A46.43,46.43,0,0,1,408.87,253q7.29,11.93,7.89,29.48.19,8.69.19,15.18t-.19,15Q416,331,409,343a42.51,42.51,0,0,1-20.31,17.84q-13.32,5.82-32.65,5.82Zm30.36-28.4H355c5.65,0,10.36-.89,14.1-2.66a17.78,17.78,0,0,0,8.48-8.38q2.86-5.72,3.05-15c.27-3.81.43-7.23.5-10.26s.07-6,0-9.06-.23-6.38-.5-10.06q-.39-13.41-7-19.62T354.05,257H334.12Z" transform="translate(-298.82 -228.62)"/><path class="cls-1" d="M445,366.66a4.73,4.73,0,0,1-4.94-4.93V233.54A4.83,4.83,0,0,1,441.4,230a4.77,4.77,0,0,1,3.56-1.38h20.9q3.34,0,4.83,1.47a10.54,10.54,0,0,1,1.87,2.27l48.12,75.93V233.54a4.73,4.73,0,0,1,4.93-4.92h23.66a4.73,4.73,0,0,1,4.94,4.92V361.73a4.92,4.92,0,0,1-1.38,3.45,4.66,4.66,0,0,1-3.56,1.48H528.18c-2.11,0-3.66-.52-4.64-1.58a19.72,19.72,0,0,1-1.87-2.17l-48.12-73v71.78a4.73,4.73,0,0,1-4.93,4.93Z" transform="translate(-298.82 -228.62)"/></svg>